<svg width="208" height="50" viewBox="0 0 208 50" fill="none" xmlns="http://www.w3.org/2000/svg">
<path d="M71.8202 21.8989H64.3008L63.0953 25.3837H57.958L65.2479 5.65506H70.9305L78.2204 25.3837H73.0256L71.8202 21.8989ZM70.5574 18.1892L68.0605 10.9666L65.5923 18.1892H70.5574Z" fill="white"/>
<path d="M97.7165 5.65506L90.7424 18.8637V25.3837H85.8347V18.8637L78.8605 5.65506H84.4283L88.3316 13.9175L92.2061 5.65506H97.7165Z" fill="white"/>
<path d="M106.984 25.5804C105.511 25.5804 104.19 25.3462 103.023 24.8778C101.856 24.4095 100.918 23.7162 100.211 22.7982C99.5217 21.8801 99.1582 20.7747 99.1199 19.482H104.343C104.42 20.2127 104.678 20.7747 105.118 21.1682C105.558 21.5429 106.132 21.7303 106.84 21.7303C107.567 21.7303 108.141 21.571 108.562 21.2525C108.983 20.9153 109.194 20.4562 109.194 19.8754C109.194 19.3883 109.022 18.9855 108.677 18.667C108.352 18.3485 107.94 18.0862 107.443 17.8801C106.965 17.674 106.276 17.4398 105.377 17.1775C104.076 16.784 103.014 16.3906 102.191 15.9971C101.368 15.6037 100.66 15.0229 100.067 14.2547C99.4739 13.4866 99.1773 12.4842 99.1773 11.2477C99.1773 9.41156 99.8566 7.97828 101.215 6.94782C102.574 5.89862 104.343 5.37402 106.525 5.37402C108.744 5.37402 110.533 5.89862 111.892 6.94782C113.25 7.97828 113.977 9.42093 114.073 11.2758H108.763C108.725 10.6387 108.486 10.1422 108.046 9.78627C107.606 9.41156 107.041 9.2242 106.352 9.2242C105.759 9.2242 105.281 9.38345 104.917 9.70196C104.554 10.0017 104.372 10.442 104.372 11.0228C104.372 11.6598 104.678 12.1563 105.29 12.5123C105.903 12.8683 106.859 13.2524 108.161 13.6646C109.462 14.0955 110.514 14.5077 111.318 14.9011C112.14 15.2946 112.848 15.866 113.441 16.6154C114.034 17.3648 114.331 18.3297 114.331 19.5101C114.331 20.6342 114.034 21.6553 113.441 22.5734C112.867 23.4914 112.025 24.2221 110.916 24.7654C109.806 25.3088 108.495 25.5804 106.984 25.5804Z" fill="white"/>
<path d="M126.88 25.5804C124.986 25.5804 123.244 25.1495 121.656 24.2877C120.087 23.4258 118.834 22.2268 117.897 20.6904C116.978 19.1354 116.519 17.393 116.519 15.4632C116.519 13.5334 116.978 11.8004 117.897 10.264C118.834 8.72771 120.087 7.52862 121.656 6.66678C123.244 5.80494 124.986 5.37402 126.88 5.37402C128.774 5.37402 130.506 5.80494 132.075 6.66678C133.663 7.52862 134.906 8.72771 135.806 10.264C136.724 11.8004 137.183 13.5334 137.183 15.4632C137.183 17.393 136.724 19.1354 135.806 20.6904C134.887 22.2268 133.643 23.4258 132.075 24.2877C130.506 25.1495 128.774 25.5804 126.88 25.5804ZM126.88 21.1963C128.487 21.1963 129.769 20.6717 130.726 19.6225C131.701 18.5733 132.189 17.1869 132.189 15.4632C132.189 13.7208 131.701 12.3343 130.726 11.3039C129.769 10.2547 128.487 9.73006 126.88 9.73006C125.253 9.73006 123.952 10.2453 122.977 11.2758C122.02 12.3062 121.542 13.702 121.542 15.4632C121.542 17.2056 122.02 18.6014 122.977 19.6506C123.952 20.6811 125.253 21.1963 126.88 21.1963Z" fill="white"/>
<path d="M154.407 5.65506V9.50524H149.069V25.3837H144.161V9.50524H138.823V5.65506H154.407Z" fill="white"/>
<path d="M59.0091 44.7656C58.5992 44.7656 58.2304 44.6953 57.9025 44.5548C57.5746 44.4085 57.317 44.2035 57.1297 43.9401C56.9423 43.6766 56.8486 43.3692 56.8486 43.0179H57.9201C57.9435 43.2814 58.046 43.498 58.2275 43.6678C58.4148 43.8376 58.6754 43.9225 59.0091 43.9225C59.3545 43.9225 59.6239 43.8405 59.8171 43.6766C60.0103 43.5068 60.1069 43.2902 60.1069 43.0267C60.1069 42.8218 60.0454 42.6549 59.9225 42.5261C59.8054 42.3973 59.6561 42.2978 59.4746 42.2275C59.2989 42.1572 59.053 42.0811 58.7368 41.9992C58.3387 41.8938 58.0138 41.7884 57.762 41.683C57.5161 41.5718 57.3053 41.402 57.1297 41.1736C56.954 40.9453 56.8662 40.6408 56.8662 40.2603C56.8662 39.909 56.954 39.6016 57.1297 39.3381C57.3053 39.0746 57.5512 38.8726 57.8674 38.7321C58.1835 38.5916 58.5495 38.5214 58.9652 38.5214C59.5565 38.5214 60.0395 38.6707 60.4143 38.9693C60.7948 39.262 61.0056 39.666 61.0466 40.1812H59.94C59.9225 39.9587 59.8171 39.7684 59.6239 39.6104C59.4306 39.4523 59.176 39.3732 58.8598 39.3732C58.5729 39.3732 58.3387 39.4464 58.1572 39.5928C57.9757 39.7392 57.8849 39.95 57.8849 40.2251C57.8849 40.4125 57.9406 40.5676 58.0518 40.6906C58.1689 40.8077 58.3153 40.9014 58.4909 40.9716C58.6666 41.0419 58.9066 41.118 59.2111 41.2C59.6151 41.3112 59.9429 41.4225 60.1947 41.5337C60.4523 41.6449 60.669 41.8177 60.8446 42.0519C61.0261 42.2802 61.1169 42.5876 61.1169 42.974C61.1169 43.2843 61.032 43.5771 60.8622 43.8522C60.6982 44.1274 60.4552 44.3499 60.1332 44.5197C59.8171 44.6836 59.4424 44.7656 59.0091 44.7656Z" fill="#2279FE"/>
<path d="M66.3117 44.7656C65.7438 44.7656 65.2198 44.6339 64.7397 44.3704C64.2655 44.1011 63.8878 43.7293 63.6068 43.255C63.3316 42.7749 63.194 42.2363 63.194 41.6391C63.194 41.0419 63.3316 40.5062 63.6068 40.0319C63.8878 39.5577 64.2655 39.1888 64.7397 38.9253C65.2198 38.656 65.7438 38.5214 66.3117 38.5214C66.8855 38.5214 67.4095 38.656 67.8838 38.9253C68.3639 39.1888 68.7415 39.5577 69.0167 40.0319C69.2919 40.5062 69.4295 41.0419 69.4295 41.6391C69.4295 42.2363 69.2919 42.7749 69.0167 43.255C68.7415 43.7293 68.3639 44.1011 67.8838 44.3704C67.4095 44.6339 66.8855 44.7656 66.3117 44.7656ZM66.3117 43.8961C66.7157 43.8961 67.0758 43.8054 67.392 43.6239C67.7081 43.4365 67.954 43.1731 68.1297 42.8335C68.3112 42.488 68.4019 42.0899 68.4019 41.6391C68.4019 41.1883 68.3112 40.7931 68.1297 40.4535C67.954 40.1139 67.7081 39.8533 67.392 39.6718C67.0758 39.4903 66.7157 39.3996 66.3117 39.3996C65.9078 39.3996 65.5477 39.4903 65.2315 39.6718C64.9153 39.8533 64.6665 40.1139 64.485 40.4535C64.3094 40.7931 64.2215 41.1883 64.2215 41.6391C64.2215 42.0899 64.3094 42.488 64.485 42.8335C64.6665 43.1731 64.9153 43.4365 65.2315 43.6239C65.5477 43.8054 65.9078 43.8961 66.3117 43.8961Z" fill="#2279FE"/>
<path d="M72.6454 43.8961H74.7092V44.7041H71.6442V38.6004H72.6454V43.8961Z" fill="#2279FE"/>
<path d="M77.7684 38.6004V42.491C77.7684 42.9535 77.8885 43.3019 78.1285 43.5361C78.3744 43.7703 78.714 43.8874 79.1473 43.8874C79.5864 43.8874 79.926 43.7703 80.166 43.5361C80.4119 43.3019 80.5349 42.9535 80.5349 42.491V38.6004H81.5361V42.4734C81.5361 42.9711 81.4278 43.3926 81.2111 43.7381C80.9945 44.0835 80.7047 44.3411 80.3417 44.5109C79.9787 44.6807 79.5776 44.7656 79.1385 44.7656C78.6994 44.7656 78.2983 44.6807 77.9353 44.5109C77.5782 44.3411 77.2942 44.0835 77.0834 43.7381C76.8726 43.3926 76.7673 42.9711 76.7673 42.4734V38.6004H77.7684Z" fill="#2279FE"/>
<path d="M83.7354 41.6391C83.7354 41.0419 83.873 40.5062 84.1482 40.0319C84.4292 39.5577 84.8069 39.1888 85.2811 38.9253C85.7612 38.656 86.2852 38.5214 86.8532 38.5214C87.503 38.5214 88.0798 38.6824 88.5833 39.0044C89.0927 39.3205 89.4615 39.7714 89.6899 40.3569H88.4867C88.3286 40.0348 88.109 39.7948 87.828 39.6367C87.547 39.4786 87.222 39.3996 86.8532 39.3996C86.4492 39.3996 86.0891 39.4903 85.7729 39.6718C85.4568 39.8533 85.2079 40.1139 85.0264 40.4535C84.8508 40.7931 84.763 41.1883 84.763 41.6391C84.763 42.0899 84.8508 42.4851 85.0264 42.8247C85.2079 43.1643 85.4568 43.4278 85.7729 43.6151C86.0891 43.7966 86.4492 43.8874 86.8532 43.8874C87.222 43.8874 87.547 43.8083 87.828 43.6502C88.109 43.4922 88.3286 43.2521 88.4867 42.9301H89.6899C89.4615 43.5156 89.0927 43.9664 88.5833 44.2826C88.0798 44.5987 87.503 44.7568 86.8532 44.7568C86.2794 44.7568 85.7554 44.6251 85.2811 44.3616C84.8069 44.0923 84.4292 43.7205 84.1482 43.2463C83.873 42.772 83.7354 42.2363 83.7354 41.6391Z" fill="#2279FE"/>
<path d="M93.0925 38.6004V44.7041H92.0913V38.6004H93.0925Z" fill="#2279FE"/>
<path d="M98.4205 44.7656C97.8525 44.7656 97.3285 44.6339 96.8484 44.3704C96.3742 44.1011 95.9965 43.7293 95.7155 43.255C95.4403 42.7749 95.3027 42.2363 95.3027 41.6391C95.3027 41.0419 95.4403 40.5062 95.7155 40.0319C95.9965 39.5577 96.3742 39.1888 96.8484 38.9253C97.3285 38.656 97.8525 38.5214 98.4205 38.5214C98.9942 38.5214 99.5182 38.656 99.9925 38.9253C100.473 39.1888 100.85 39.5577 101.125 40.0319C101.401 40.5062 101.538 41.0419 101.538 41.6391C101.538 42.2363 101.401 42.7749 101.125 43.255C100.85 43.7293 100.473 44.1011 99.9925 44.3704C99.5182 44.6339 98.9942 44.7656 98.4205 44.7656ZM98.4205 43.8961C98.8244 43.8961 99.1845 43.8054 99.5007 43.6239C99.8168 43.4365 100.063 43.1731 100.238 42.8335C100.42 42.488 100.511 42.0899 100.511 41.6391C100.511 41.1883 100.42 40.7931 100.238 40.4535C100.063 40.1139 99.8168 39.8533 99.5007 39.6718C99.1845 39.4903 98.8244 39.3996 98.4205 39.3996C98.0165 39.3996 97.6564 39.4903 97.3402 39.6718C97.0241 39.8533 96.7752 40.1139 96.5937 40.4535C96.4181 40.7931 96.3303 41.1883 96.3303 41.6391C96.3303 42.0899 96.4181 42.488 96.5937 42.8335C96.7752 43.1731 97.0241 43.4365 97.3402 43.6239C97.6564 43.8054 98.0165 43.8961 98.4205 43.8961Z" fill="#2279FE"/>
<path d="M108.768 44.7041H107.766L104.754 40.1461V44.7041H103.753V38.5916H104.754L107.766 43.1409V38.5916H108.768V44.7041Z" fill="#2279FE"/>
<path d="M112.313 39.4084V41.2H114.421V42.0167H112.313V43.8874H114.684V44.7041H111.312V38.5916H114.684V39.4084H112.313Z" fill="#2279FE"/>
<path d="M119.158 44.7656C118.748 44.7656 118.379 44.6953 118.052 44.5548C117.724 44.4085 117.466 44.2035 117.279 43.9401C117.091 43.6766 116.998 43.3692 116.998 43.0179H118.069C118.093 43.2814 118.195 43.498 118.377 43.6678C118.564 43.8376 118.824 43.9225 119.158 43.9225C119.504 43.9225 119.773 43.8405 119.966 43.6766C120.159 43.5068 120.256 43.2902 120.256 43.0267C120.256 42.8218 120.194 42.6549 120.072 42.5261C119.954 42.3973 119.805 42.2978 119.624 42.2275C119.448 42.1572 119.202 42.0811 118.886 41.9992C118.488 41.8938 118.163 41.7884 117.911 41.683C117.665 41.5718 117.454 41.402 117.279 41.1736C117.103 40.9453 117.015 40.6408 117.015 40.2603C117.015 39.909 117.103 39.6016 117.279 39.3381C117.454 39.0746 117.7 38.8726 118.016 38.7321C118.333 38.5916 118.699 38.5214 119.114 38.5214C119.706 38.5214 120.189 38.6707 120.563 38.9693C120.944 39.262 121.155 39.666 121.196 40.1812H120.089C120.072 39.9587 119.966 39.7684 119.773 39.6104C119.58 39.4523 119.325 39.3732 119.009 39.3732C118.722 39.3732 118.488 39.4464 118.306 39.5928C118.125 39.7392 118.034 39.95 118.034 40.2251C118.034 40.4125 118.09 40.5676 118.201 40.6906C118.318 40.8077 118.464 40.9014 118.64 40.9716C118.816 41.0419 119.056 41.118 119.36 41.2C119.764 41.3112 120.092 41.4225 120.344 41.5337C120.601 41.6449 120.818 41.8177 120.994 42.0519C121.175 42.2802 121.266 42.5876 121.266 42.974C121.266 43.2843 121.181 43.5771 121.011 43.8522C120.847 44.1274 120.604 44.3499 120.282 44.5197C119.966 44.6836 119.591 44.7656 119.158 44.7656Z" fill="#2279FE"/>
<path d="M131.131 38.6004V39.4172H129.506V44.7041H128.505V39.4172H126.872V38.6004H131.131Z" fill="#2279FE"/>
<path d="M134.376 39.4084V41.2H136.483V42.0167H134.376V43.8874H136.747V44.7041H133.374V38.5916H136.747V39.4084H134.376Z" fill="#2279FE"/>
<path d="M138.876 41.6391C138.876 41.0419 139.013 40.5062 139.289 40.0319C139.57 39.5577 139.947 39.1888 140.422 38.9253C140.902 38.656 141.426 38.5214 141.994 38.5214C142.643 38.5214 143.22 38.6824 143.724 39.0044C144.233 39.3205 144.602 39.7714 144.83 40.3569H143.627C143.469 40.0348 143.249 39.7948 142.968 39.6367C142.687 39.4786 142.362 39.3996 141.994 39.3996C141.59 39.3996 141.229 39.4903 140.913 39.6718C140.597 39.8533 140.348 40.1139 140.167 40.4535C139.991 40.7931 139.903 41.1883 139.903 41.6391C139.903 42.0899 139.991 42.4851 140.167 42.8247C140.348 43.1643 140.597 43.4278 140.913 43.6151C141.229 43.7966 141.59 43.8874 141.994 43.8874C142.362 43.8874 142.687 43.8083 142.968 43.6502C143.249 43.4922 143.469 43.2521 143.627 42.9301H144.83C144.602 43.5156 144.233 43.9664 143.724 44.2826C143.22 44.5987 142.643 44.7568 141.994 44.7568C141.42 44.7568 140.896 44.6251 140.422 44.3616C139.947 44.0923 139.57 43.7205 139.289 43.2463C139.013 42.772 138.876 42.2363 138.876 41.6391Z" fill="#2279FE"/>
<path d="M152.246 44.7041H151.245L148.233 40.1461V44.7041H147.232V38.5916H148.233L151.245 43.1409V38.5916H152.246V44.7041Z" fill="#2279FE"/>
<path d="M157.575 44.7656C157.007 44.7656 156.483 44.6339 156.003 44.3704C155.528 44.1011 155.151 43.7293 154.87 43.255C154.595 42.7749 154.457 42.2363 154.457 41.6391C154.457 41.0419 154.595 40.5062 154.87 40.0319C155.151 39.5577 155.528 39.1888 156.003 38.9253C156.483 38.656 157.007 38.5214 157.575 38.5214C158.148 38.5214 158.672 38.656 159.147 38.9253C159.627 39.1888 160.004 39.5577 160.28 40.0319C160.555 40.5062 160.692 41.0419 160.692 41.6391C160.692 42.2363 160.555 42.7749 160.28 43.255C160.004 43.7293 159.627 44.1011 159.147 44.3704C158.672 44.6339 158.148 44.7656 157.575 44.7656ZM157.575 43.8961C157.979 43.8961 158.339 43.8054 158.655 43.6239C158.971 43.4365 159.217 43.1731 159.393 42.8335C159.574 42.488 159.665 42.0899 159.665 41.6391C159.665 41.1883 159.574 40.7931 159.393 40.4535C159.217 40.1139 158.971 39.8533 158.655 39.6718C158.339 39.4903 157.979 39.3996 157.575 39.3996C157.171 39.3996 156.811 39.4903 156.494 39.6718C156.178 39.8533 155.929 40.1139 155.748 40.4535C155.572 40.7931 155.484 41.1883 155.484 41.6391C155.484 42.0899 155.572 42.488 155.748 42.8335C155.929 43.1731 156.178 43.4365 156.494 43.6239C156.811 43.8054 157.171 43.8961 157.575 43.8961Z" fill="#2279FE"/>
<path d="M163.908 43.8961H165.972V44.7041H162.907V38.6004H163.908V43.8961Z" fill="#2279FE"/>
<path d="M170.823 44.7656C170.255 44.7656 169.731 44.6339 169.251 44.3704C168.777 44.1011 168.399 43.7293 168.118 43.255C167.843 42.7749 167.705 42.2363 167.705 41.6391C167.705 41.0419 167.843 40.5062 168.118 40.0319C168.399 39.5577 168.777 39.1888 169.251 38.9253C169.731 38.656 170.255 38.5214 170.823 38.5214C171.397 38.5214 171.921 38.656 172.395 38.9253C172.875 39.1888 173.253 39.5577 173.528 40.0319C173.803 40.5062 173.941 41.0419 173.941 41.6391C173.941 42.2363 173.803 42.7749 173.528 43.255C173.253 43.7293 172.875 44.1011 172.395 44.3704C171.921 44.6339 171.397 44.7656 170.823 44.7656ZM170.823 43.8961C171.227 43.8961 171.587 43.8054 171.903 43.6239C172.219 43.4365 172.465 43.1731 172.641 42.8335C172.822 42.488 172.913 42.0899 172.913 41.6391C172.913 41.1883 172.822 40.7931 172.641 40.4535C172.465 40.1139 172.219 39.8533 171.903 39.6718C171.587 39.4903 171.227 39.3996 170.823 39.3996C170.419 39.3996 170.059 39.4903 169.743 39.6718C169.427 39.8533 169.178 40.1139 168.996 40.4535C168.821 40.7931 168.733 41.1883 168.733 41.6391C168.733 42.0899 168.821 42.488 168.996 42.8335C169.178 43.1731 169.427 43.4365 169.743 43.6239C170.059 43.8054 170.419 43.8961 170.823 43.8961ZM171.728 37.2918L169.787 38.2491V37.5114L171.728 36.4399V37.2918Z" fill="#2279FE"/>
<path d="M180.573 40.3569C180.415 40.0524 180.195 39.8241 179.914 39.6718C179.633 39.5138 179.308 39.4347 178.939 39.4347C178.535 39.4347 178.175 39.5255 177.859 39.707C177.543 39.8885 177.294 40.1461 177.113 40.4798C176.937 40.8135 176.849 41.2 176.849 41.6391C176.849 42.0782 176.937 42.4676 177.113 42.8071C177.294 43.1409 177.543 43.3985 177.859 43.58C178.175 43.7615 178.535 43.8522 178.939 43.8522C179.484 43.8522 179.926 43.7 180.266 43.3956C180.605 43.0911 180.813 42.6783 180.889 42.1572H178.597V41.3581H181.961V42.1397C181.896 42.6139 181.726 43.0501 181.451 43.4482C181.182 43.8464 180.828 44.1655 180.389 44.4055C179.955 44.6397 179.472 44.7568 178.939 44.7568C178.366 44.7568 177.842 44.6251 177.367 44.3616C176.893 44.0923 176.515 43.7205 176.234 43.2463C175.959 42.772 175.822 42.2363 175.822 41.6391C175.822 41.0419 175.959 40.5062 176.234 40.0319C176.515 39.5577 176.893 39.1888 177.367 38.9253C177.847 38.656 178.371 38.5214 178.939 38.5214C179.589 38.5214 180.166 38.6824 180.67 39.0044C181.179 39.3205 181.548 39.7714 181.776 40.3569H180.573Z" fill="#2279FE"/>
<path d="M185.179 38.6004V44.7041H184.178V38.6004H185.179Z" fill="#2279FE"/>
<path d="M187.389 41.6391C187.389 41.0419 187.527 40.5062 187.802 40.0319C188.083 39.5577 188.46 39.1888 188.935 38.9253C189.415 38.656 189.939 38.5214 190.507 38.5214C191.157 38.5214 191.733 38.6824 192.237 39.0044C192.746 39.3205 193.115 39.7714 193.343 40.3569H192.14C191.982 40.0348 191.763 39.7948 191.482 39.6367C191.201 39.4786 190.876 39.3996 190.507 39.3996C190.103 39.3996 189.743 39.4903 189.426 39.6718C189.11 39.8533 188.861 40.1139 188.68 40.4535C188.504 40.7931 188.417 41.1883 188.417 41.6391C188.417 42.0899 188.504 42.4851 188.68 42.8247C188.861 43.1643 189.11 43.4278 189.426 43.6151C189.743 43.7966 190.103 43.8874 190.507 43.8874C190.876 43.8874 191.201 43.8083 191.482 43.6502C191.763 43.4922 191.982 43.2521 192.14 42.9301H193.343C193.115 43.5156 192.746 43.9664 192.237 44.2826C191.733 44.5987 191.157 44.7568 190.507 44.7568C189.933 44.7568 189.409 44.6251 188.935 44.3616C188.46 44.0923 188.083 43.7205 187.802 43.2463C187.527 42.772 187.389 42.2363 187.389 41.6391Z" fill="#2279FE"/>
<path d="M199.425 43.457H196.869L196.43 44.7041H195.385L197.572 38.5916H198.731L200.918 44.7041H199.864L199.425 43.457ZM199.144 42.6403L198.151 39.8036L197.15 42.6403H199.144Z" fill="#2279FE"/>
<path d="M205.109 44.7656C204.699 44.7656 204.33 44.6953 204.003 44.5548C203.675 44.4085 203.417 44.2035 203.23 43.9401C203.042 43.6766 202.949 43.3692 202.949 43.0179H204.02C204.044 43.2814 204.146 43.498 204.328 43.6678C204.515 43.8376 204.775 43.9225 205.109 43.9225C205.455 43.9225 205.724 43.8405 205.917 43.6766C206.11 43.5068 206.207 43.2902 206.207 43.0267C206.207 42.8218 206.145 42.6549 206.023 42.5261C205.905 42.3973 205.756 42.2978 205.575 42.2275C205.399 42.1572 205.153 42.0811 204.837 41.9992C204.439 41.8938 204.114 41.7884 203.862 41.683C203.616 41.5718 203.405 41.402 203.23 41.1736C203.054 40.9453 202.966 40.6408 202.966 40.2603C202.966 39.909 203.054 39.6016 203.23 39.3381C203.405 39.0746 203.651 38.8726 203.967 38.7321C204.284 38.5916 204.65 38.5214 205.065 38.5214C205.657 38.5214 206.14 38.6707 206.514 38.9693C206.895 39.262 207.106 39.666 207.147 40.1812H206.04C206.023 39.9587 205.917 39.7684 205.724 39.6104C205.531 39.4523 205.276 39.3732 204.96 39.3732C204.673 39.3732 204.439 39.4464 204.257 39.5928C204.076 39.7392 203.985 39.95 203.985 40.2251C203.985 40.4125 204.041 40.5676 204.152 40.6906C204.269 40.8077 204.415 40.9014 204.591 40.9716C204.767 41.0419 205.007 41.118 205.311 41.2C205.715 41.3112 206.043 41.4225 206.295 41.5337C206.552 41.6449 206.769 41.8177 206.945 42.0519C207.126 42.2802 207.217 42.5876 207.217 42.974C207.217 43.2843 207.132 43.5771 206.962 43.8522C206.798 44.1274 206.555 44.3499 206.233 44.5197C205.917 44.6836 205.542 44.7656 205.109 44.7656Z" fill="#2279FE"/>
<path d="M0.983398 1.11633C0.983398 0.675622 1.34066 0.318359 1.78137 0.318359H43.9225C44.3632 0.318359 44.7205 0.675622 44.7205 1.11633V8.87708C44.7205 9.31779 44.3632 9.67505 43.9225 9.67505H1.78137C1.34066 9.67505 0.983398 9.31779 0.983398 8.87708V1.11633Z" fill="#2178FC"/>
<path d="M0.983398 1.11633C0.983398 0.675622 1.34066 0.318359 1.78137 0.318359H43.9225C44.3632 0.318359 44.7205 0.675622 44.7205 1.11633V8.87708C44.7205 9.31779 44.3632 9.67505 43.9225 9.67505H1.78137C1.34066 9.67505 0.983398 9.31779 0.983398 8.87708V1.11633Z" fill="#2178FC"/>
<path d="M0.983398 1.11633C0.983398 0.675622 1.34066 0.318359 1.78137 0.318359H43.9225C44.3632 0.318359 44.7205 0.675622 44.7205 1.11633V8.87708C44.7205 9.31779 44.3632 9.67505 43.9225 9.67505H1.78137C1.34066 9.67505 0.983398 9.31779 0.983398 8.87708V1.11633Z" fill="#2178FC"/>
<path d="M0.983398 1.11633C0.983398 0.675622 1.34066 0.318359 1.78137 0.318359H43.9225C44.3632 0.318359 44.7205 0.675622 44.7205 1.11633V8.87708C44.7205 9.31779 44.3632 9.67505 43.9225 9.67505H1.78137C1.34066 9.67505 0.983398 9.31779 0.983398 8.87708V1.11633Z" fill="#2178FC"/>
<path d="M7.29389 14.4985C7.29389 14.0578 7.65115 13.7005 8.09186 13.7005H43.9227C44.3634 13.7005 44.7207 14.0578 44.7207 14.4985V22.2592C44.7207 22.6999 44.3634 23.0572 43.9227 23.0572H8.09186C7.65115 23.0572 7.29389 22.6999 7.29389 22.2592V14.4985Z" fill="#2178FC"/>
<path d="M7.29389 14.4985C7.29389 14.0578 7.65115 13.7005 8.09186 13.7005H43.9227C44.3634 13.7005 44.7207 14.0578 44.7207 14.4985V22.2592C44.7207 22.6999 44.3634 23.0572 43.9227 23.0572H8.09186C7.65115 23.0572 7.29389 22.6999 7.29389 22.2592V14.4985Z" fill="#2178FC"/>
<path d="M7.29389 14.4985C7.29389 14.0578 7.65115 13.7005 8.09186 13.7005H43.9227C44.3634 13.7005 44.7207 14.0578 44.7207 14.4985V22.2592C44.7207 22.6999 44.3634 23.0572 43.9227 23.0572H8.09186C7.65115 23.0572 7.29389 22.6999 7.29389 22.2592V14.4985Z" fill="#2178FC"/>
<path d="M7.29389 14.4985C7.29389 14.0578 7.65115 13.7005 8.09186 13.7005H43.9227C44.3634 13.7005 44.7207 14.0578 44.7207 14.4985V22.2592C44.7207 22.6999 44.3634 23.0572 43.9227 23.0572H8.09186C7.65115 23.0572 7.29389 22.6999 7.29389 22.2592V14.4985Z" fill="#2178FC"/>
<path d="M16.9772 27.8809C16.9772 27.4402 17.3344 27.083 17.7752 27.083H43.9229C44.3636 27.083 44.7209 27.4402 44.7209 27.8809V35.6417C44.7209 36.0824 44.3636 36.4397 43.9229 36.4397H17.7752C17.3344 36.4397 16.9772 36.0824 16.9772 35.6417V27.8809Z" fill="#2178FC"/>
<path d="M16.9772 27.8809C16.9772 27.4402 17.3344 27.083 17.7752 27.083H43.9229C44.3636 27.083 44.7209 27.4402 44.7209 27.8809V35.6417C44.7209 36.0824 44.3636 36.4397 43.9229 36.4397H17.7752C17.3344 36.4397 16.9772 36.0824 16.9772 35.6417V27.8809Z" fill="#2178FC"/>
<path d="M16.9772 27.8809C16.9772 27.4402 17.3344 27.083 17.7752 27.083H43.9229C44.3636 27.083 44.7209 27.4402 44.7209 27.8809V35.6417C44.7209 36.0824 44.3636 36.4397 43.9229 36.4397H17.7752C17.3344 36.4397 16.9772 36.0824 16.9772 35.6417V27.8809Z" fill="#2178FC"/>
<path d="M16.9772 27.8809C16.9772 27.4402 17.3344 27.083 17.7752 27.083H43.9229C44.3636 27.083 44.7209 27.4402 44.7209 27.8809V35.6417C44.7209 36.0824 44.3636 36.4397 43.9229 36.4397H17.7752C17.3344 36.4397 16.9772 36.0824 16.9772 35.6417V27.8809Z" fill="#2178FC"/>
<path d="M22.8525 41.2631C22.8525 40.8224 23.2098 40.4651 23.6505 40.4651H43.9231C44.3638 40.4651 44.7211 40.8224 44.7211 41.2631V49.0238C44.7211 49.4645 44.3638 49.8218 43.9231 49.8218H23.6505C23.2098 49.8218 22.8525 49.4645 22.8525 49.0238V41.2631Z" fill="#2178FC"/>
<path d="M22.8525 41.2631C22.8525 40.8224 23.2098 40.4651 23.6505 40.4651H43.9231C44.3638 40.4651 44.7211 40.8224 44.7211 41.2631V49.0238C44.7211 49.4645 44.3638 49.8218 43.9231 49.8218H23.6505C23.2098 49.8218 22.8525 49.4645 22.8525 49.0238V41.2631Z" fill="#2178FC"/>
<path d="M22.8525 41.2631C22.8525 40.8224 23.2098 40.4651 23.6505 40.4651H43.9231C44.3638 40.4651 44.7211 40.8224 44.7211 41.2631V49.0238C44.7211 49.4645 44.3638 49.8218 43.9231 49.8218H23.6505C23.2098 49.8218 22.8525 49.4645 22.8525 49.0238V41.2631Z" fill="#2178FC"/>
<path d="M22.8525 41.2631C22.8525 40.8224 23.2098 40.4651 23.6505 40.4651H43.9231C44.3638 40.4651 44.7211 40.8224 44.7211 41.2631V49.0238C44.7211 49.4645 44.3638 49.8218 43.9231 49.8218H23.6505C23.2098 49.8218 22.8525 49.4645 22.8525 49.0238V41.2631Z" fill="#2178FC"/>
</svg>
