<svg width="201" height="52" viewBox="0 0 201 52" fill="none" xmlns="http://www.w3.org/2000/svg">
<path d="M71.4411 23.3643H64.2714L63.122 26.7399H58.2236L65.1745 7.62965H70.5928L77.5436 26.7399H72.5905L71.4411 23.3643ZM70.2371 19.7709L67.8563 12.7747L65.5028 19.7709H70.2371Z" fill="black"/>
<path d="M96.1331 7.62965L89.4833 20.4242V26.7399H84.8038V20.4242L78.154 7.62965H83.4629L87.1846 15.6331L90.879 7.62965H96.1331Z" fill="black"/>
<path d="M104.969 26.9304C103.565 26.9304 102.306 26.7036 101.193 26.2498C100.08 25.7961 99.1861 25.1246 98.5111 24.2354C97.8544 23.3461 97.5077 22.2754 97.4712 21.0231H102.452C102.525 21.7309 102.771 22.2754 103.191 22.6565C103.61 23.0194 104.158 23.2009 104.833 23.2009C105.526 23.2009 106.073 23.0467 106.474 22.7381C106.876 22.4115 107.077 21.9668 107.077 21.4042C107.077 20.9324 106.912 20.5422 106.584 20.2337C106.274 19.9251 105.882 19.6711 105.407 19.4714C104.951 19.2718 104.294 19.045 103.437 18.7909C102.196 18.4098 101.184 18.0286 100.399 17.6475C99.6149 17.2664 98.9399 16.7038 98.3743 15.9597C97.8088 15.2157 97.526 14.2447 97.526 13.0469C97.526 11.2684 98.1736 9.88004 99.4689 8.88188C100.764 7.86558 102.452 7.35742 104.532 7.35742C106.648 7.35742 108.354 7.86558 109.649 8.88188C110.944 9.88004 111.637 11.2775 111.729 13.0741H106.666C106.63 12.4571 106.402 11.9762 105.982 11.6314C105.562 11.2684 105.024 11.0869 104.367 11.0869C103.802 11.0869 103.346 11.2412 102.999 11.5497C102.652 11.8401 102.479 12.2665 102.479 12.8291C102.479 13.4462 102.771 13.9271 103.355 14.2719C103.939 14.6168 104.851 14.9888 106.091 15.3881C107.332 15.8055 108.335 16.2047 109.102 16.5859C109.886 16.967 110.561 17.5205 111.127 18.2464C111.692 18.9724 111.975 19.907 111.975 21.0503C111.975 22.1392 111.692 23.1283 111.127 24.0176C110.579 24.9069 109.777 25.6147 108.718 26.141C107.66 26.6673 106.411 26.9304 104.969 26.9304Z" fill="black"/>
<path d="M123.94 26.9304C122.134 26.9304 120.474 26.513 118.96 25.6782C117.464 24.8434 116.269 23.6819 115.375 22.1937C114.499 20.6874 114.061 18.9996 114.061 17.1303C114.061 15.261 114.499 13.5823 115.375 12.0941C116.269 10.606 117.464 9.44448 118.96 8.60966C120.474 7.77483 122.134 7.35742 123.94 7.35742C125.746 7.35742 127.397 7.77483 128.893 8.60966C130.407 9.44448 131.593 10.606 132.451 12.0941C133.326 13.5823 133.764 15.261 133.764 17.1303C133.764 18.9996 133.326 20.6874 132.451 22.1937C131.575 23.6819 130.389 24.8434 128.893 25.6782C127.397 26.513 125.746 26.9304 123.94 26.9304ZM123.94 22.6837C125.473 22.6837 126.695 22.1755 127.607 21.1592C128.537 20.1429 129.003 18.8 129.003 17.1303C129.003 15.4425 128.537 14.0995 127.607 13.1014C126.695 12.0851 125.473 11.5769 123.94 11.5769C122.389 11.5769 121.149 12.076 120.218 13.0741C119.306 14.0723 118.85 15.4244 118.85 17.1303C118.85 18.8181 119.306 20.1702 120.218 21.1865C121.149 22.1846 122.389 22.6837 123.94 22.6837Z" fill="black"/>
<path d="M150.187 7.62965V11.3591H145.097V26.7399H140.418V11.3591H135.328V7.62965H150.187Z" fill="black"/>
<path d="M59.225 45.5149C58.8342 45.5149 58.4825 45.4468 58.1699 45.3107C57.8573 45.1689 57.6116 44.9704 57.433 44.7152C57.2544 44.46 57.165 44.1622 57.165 43.822H58.1867C58.209 44.0772 58.3067 44.287 58.4797 44.4515C58.6584 44.616 58.9068 44.6982 59.225 44.6982C59.5544 44.6982 59.8112 44.6188 59.9954 44.46C60.1796 44.2955 60.2718 44.0857 60.2718 43.8305C60.2718 43.632 60.2131 43.4703 60.0959 43.3456C59.9843 43.2208 59.8419 43.1244 59.6688 43.0563C59.5014 42.9883 59.2669 42.9145 58.9654 42.8351C58.5858 42.7331 58.276 42.631 58.0359 42.5289C57.8015 42.4211 57.6005 42.2567 57.433 42.0355C57.2655 41.8143 57.1818 41.5194 57.1818 41.1508C57.1818 40.8105 57.2655 40.5127 57.433 40.2575C57.6005 40.0023 57.835 39.8066 58.1364 39.6705C58.4379 39.5344 58.7868 39.4664 59.1831 39.4664C59.747 39.4664 60.2076 39.611 60.5648 39.9002C60.9277 40.1838 61.1287 40.5751 61.1678 41.0742H60.1127C60.0959 40.8587 59.9954 40.6744 59.8112 40.5212C59.627 40.3681 59.3841 40.2915 59.0827 40.2915C58.8091 40.2915 58.5858 40.3624 58.4128 40.5042C58.2397 40.646 58.1532 40.8502 58.1532 41.1167C58.1532 41.2982 58.2062 41.4485 58.3123 41.5676C58.4239 41.681 58.5635 41.7718 58.731 41.8398C58.8984 41.9079 59.1273 41.9816 59.4176 42.061C59.8028 42.1688 60.1154 42.2765 60.3555 42.3843C60.6011 42.492 60.8077 42.6593 60.9752 42.8862C61.1482 43.1074 61.2348 43.4051 61.2348 43.7794C61.2348 44.08 61.1538 44.3636 60.9919 44.6301C60.8356 44.8967 60.6039 45.1122 60.2969 45.2767C59.9954 45.4355 59.6381 45.5149 59.225 45.5149Z" fill="#2279FE"/>
<path d="M66.188 45.5149C65.6465 45.5149 65.1469 45.3873 64.6891 45.132C64.2369 44.8712 63.8769 44.511 63.6089 44.0517C63.3465 43.5866 63.2153 43.0648 63.2153 42.4864C63.2153 41.9079 63.3465 41.389 63.6089 40.9296C63.8769 40.4702 64.2369 40.1129 64.6891 39.8577C65.1469 39.5968 65.6465 39.4664 66.188 39.4664C66.7351 39.4664 67.2348 39.5968 67.687 39.8577C68.1447 40.1129 68.5048 40.4702 68.7672 40.9296C69.0296 41.389 69.1608 41.9079 69.1608 42.4864C69.1608 43.0648 69.0296 43.5866 68.7672 44.0517C68.5048 44.511 68.1447 44.8712 67.687 45.132C67.2348 45.3873 66.7351 45.5149 66.188 45.5149ZM66.188 44.6727C66.5732 44.6727 66.9166 44.5848 67.218 44.4089C67.5195 44.2275 67.754 43.9723 67.9214 43.6433C68.0945 43.3087 68.181 42.9231 68.181 42.4864C68.181 42.0497 68.0945 41.6668 67.9214 41.3379C67.754 41.009 67.5195 40.7566 67.218 40.5808C66.9166 40.405 66.5732 40.3171 66.188 40.3171C65.8028 40.3171 65.4595 40.405 65.1581 40.5808C64.8566 40.7566 64.6193 41.009 64.4463 41.3379C64.2788 41.6668 64.1951 42.0497 64.1951 42.4864C64.1951 42.9231 64.2788 43.3087 64.4463 43.6433C64.6193 43.9723 64.8566 44.2275 65.1581 44.4089C65.4595 44.5848 65.8028 44.6727 66.188 44.6727Z" fill="#2279FE"/>
<path d="M72.2271 44.6727H74.195V45.4553H71.2725V39.5429H72.2271V44.6727Z" fill="#2279FE"/>
<path d="M77.1119 39.5429V43.3115C77.1119 43.7596 77.2264 44.097 77.4553 44.3239C77.6897 44.5507 78.0135 44.6642 78.4266 44.6642C78.8453 44.6642 79.1691 44.5507 79.398 44.3239C79.6325 44.097 79.7497 43.7596 79.7497 43.3115V39.5429H80.7043V43.2945C80.7043 43.7766 80.6011 44.1849 80.3945 44.5195C80.1879 44.8542 79.9116 45.1037 79.5655 45.2682C79.2194 45.4326 78.837 45.5149 78.4183 45.5149C77.9996 45.5149 77.6172 45.4326 77.271 45.2682C76.9305 45.1037 76.6597 44.8542 76.4588 44.5195C76.2578 44.1849 76.1573 43.7766 76.1573 43.2945V39.5429H77.1119Z" fill="#2279FE"/>
<path d="M82.8014 42.4864C82.8014 41.9079 82.9326 41.389 83.195 40.9296C83.4629 40.4702 83.823 40.1129 84.2752 39.8577C84.733 39.5968 85.2326 39.4664 85.7741 39.4664C86.3938 39.4664 86.9437 39.6223 87.4238 39.9342C87.9095 40.2405 88.2612 40.6772 88.4789 41.2443H87.3317C87.181 40.9324 86.9716 40.6999 86.7036 40.5468C86.4357 40.3936 86.1258 40.3171 85.7741 40.3171C85.3889 40.3171 85.0456 40.405 84.7442 40.5808C84.4427 40.7566 84.2054 41.009 84.0324 41.3379C83.8649 41.6668 83.7812 42.0497 83.7812 42.4864C83.7812 42.9231 83.8649 43.3059 84.0324 43.6348C84.2054 43.9637 84.4427 44.219 84.7442 44.4004C85.0456 44.5763 85.3889 44.6642 85.7741 44.6642C86.1258 44.6642 86.4357 44.5876 86.7036 44.4345C86.9716 44.2813 87.181 44.0488 87.3317 43.7369H88.4789C88.2612 44.304 87.9095 44.7407 87.4238 45.047C86.9437 45.3532 86.3938 45.5064 85.7741 45.5064C85.227 45.5064 84.7274 45.3788 84.2752 45.1235C83.823 44.8627 83.4629 44.5025 83.195 44.0431C82.9326 43.5838 82.8014 43.0648 82.8014 42.4864Z" fill="#2279FE"/>
<path d="M91.7233 39.5429V45.4553H90.7687V39.5429H91.7233Z" fill="#2279FE"/>
<path d="M96.8035 45.5149C96.262 45.5149 95.7623 45.3873 95.3046 45.132C94.8524 44.8712 94.4923 44.511 94.2243 44.0517C93.9619 43.5866 93.8307 43.0648 93.8307 42.4864C93.8307 41.9079 93.9619 41.389 94.2243 40.9296C94.4923 40.4702 94.8524 40.1129 95.3046 39.8577C95.7623 39.5968 96.262 39.4664 96.8035 39.4664C97.3506 39.4664 97.8502 39.5968 98.3024 39.8577C98.7602 40.1129 99.1203 40.4702 99.3826 40.9296C99.645 41.389 99.7762 41.9079 99.7762 42.4864C99.7762 43.0648 99.645 43.5866 99.3826 44.0517C99.1203 44.511 98.7602 44.8712 98.3024 45.132C97.8502 45.3873 97.3506 45.5149 96.8035 45.5149ZM96.8035 44.6727C97.1887 44.6727 97.532 44.5848 97.8335 44.4089C98.1349 44.2275 98.3694 43.9723 98.5369 43.6433C98.7099 43.3087 98.7965 42.9231 98.7965 42.4864C98.7965 42.0497 98.7099 41.6668 98.5369 41.3379C98.3694 41.009 98.1349 40.7566 97.8335 40.5808C97.532 40.405 97.1887 40.3171 96.8035 40.3171C96.4183 40.3171 96.075 40.405 95.7735 40.5808C95.472 40.7566 95.2348 41.009 95.0617 41.3379C94.8942 41.6668 94.8105 42.0497 94.8105 42.4864C94.8105 42.9231 94.8942 43.3087 95.0617 43.6433C95.2348 43.9723 95.472 44.2275 95.7735 44.4089C96.075 44.5848 96.4183 44.6727 96.8035 44.6727Z" fill="#2279FE"/>
<path d="M106.669 45.4553H105.715L102.843 41.0402V45.4553H101.888V39.5344H102.843L105.715 43.9411V39.5344H106.669V45.4553Z" fill="#2279FE"/>
<path d="M110.05 40.3256V42.061H112.06V42.8522H110.05V44.6642H112.311V45.4553H109.095V39.5344H112.311V40.3256H110.05Z" fill="#2279FE"/>
<path d="M116.577 45.5149C116.186 45.5149 115.834 45.4468 115.522 45.3107C115.209 45.1689 114.963 44.9704 114.785 44.7152C114.606 44.46 114.517 44.1622 114.517 43.822H115.538C115.561 44.0772 115.658 44.287 115.831 44.4515C116.01 44.616 116.259 44.6982 116.577 44.6982C116.906 44.6982 117.163 44.6188 117.347 44.46C117.531 44.2955 117.623 44.0857 117.623 43.8305C117.623 43.632 117.565 43.4703 117.448 43.3456C117.336 43.2208 117.194 43.1244 117.021 43.0563C116.853 42.9883 116.619 42.9145 116.317 42.8351C115.938 42.7331 115.628 42.631 115.388 42.5289C115.153 42.4211 114.952 42.2567 114.785 42.0355C114.617 41.8143 114.534 41.5194 114.534 41.1508C114.534 40.8105 114.617 40.5127 114.785 40.2575C114.952 40.0023 115.187 39.8066 115.488 39.6705C115.79 39.5344 116.139 39.4664 116.535 39.4664C117.099 39.4664 117.559 39.611 117.917 39.9002C118.279 40.1838 118.48 40.5751 118.519 41.0742H117.464C117.448 40.8587 117.347 40.6744 117.163 40.5212C116.979 40.3681 116.736 40.2915 116.434 40.2915C116.161 40.2915 115.938 40.3624 115.764 40.5042C115.591 40.646 115.505 40.8502 115.505 41.1167C115.505 41.2982 115.558 41.4485 115.664 41.5676C115.776 41.681 115.915 41.7718 116.083 41.8398C116.25 41.9079 116.479 41.9816 116.769 42.061C117.155 42.1688 117.467 42.2765 117.707 42.3843C117.953 42.492 118.159 42.6593 118.327 42.8862C118.5 43.1074 118.586 43.4051 118.586 43.7794C118.586 44.08 118.506 44.3636 118.344 44.6301C118.187 44.8967 117.956 45.1122 117.649 45.2767C117.347 45.4355 116.99 45.5149 116.577 45.5149Z" fill="#2279FE"/>
<path d="M127.993 39.5429V40.3341H126.444V45.4553H125.489V40.3341H123.931V39.5429H127.993Z" fill="#2279FE"/>
<path d="M131.086 40.3256V42.061H133.096V42.8522H131.086V44.6642H133.347V45.4553H130.132V39.5344H133.347V40.3256H131.086Z" fill="#2279FE"/>
<path d="M135.377 42.4864C135.377 41.9079 135.509 41.389 135.771 40.9296C136.039 40.4702 136.399 40.1129 136.851 39.8577C137.309 39.5968 137.809 39.4664 138.35 39.4664C138.97 39.4664 139.52 39.6223 140 39.9342C140.485 40.2405 140.837 40.6772 141.055 41.2443H139.908C139.757 40.9324 139.548 40.6999 139.28 40.5468C139.012 40.3936 138.702 40.3171 138.35 40.3171C137.965 40.3171 137.622 40.405 137.32 40.5808C137.019 40.7566 136.781 41.009 136.608 41.3379C136.441 41.6668 136.357 42.0497 136.357 42.4864C136.357 42.9231 136.441 43.3059 136.608 43.6348C136.781 43.9637 137.019 44.219 137.32 44.4004C137.622 44.5763 137.965 44.6642 138.35 44.6642C138.702 44.6642 139.012 44.5876 139.28 44.4345C139.548 44.2813 139.757 44.0488 139.908 43.7369H141.055C140.837 44.304 140.485 44.7407 140 45.047C139.52 45.3532 138.97 45.5064 138.35 45.5064C137.803 45.5064 137.303 45.3788 136.851 45.1235C136.399 44.8627 136.039 44.5025 135.771 44.0431C135.509 43.5838 135.377 43.0648 135.377 42.4864Z" fill="#2279FE"/>
<path d="M148.126 45.4553H147.172L144.299 41.0402V45.4553H143.345V39.5344H144.299L147.172 43.9411V39.5344H148.126V45.4553Z" fill="#2279FE"/>
<path d="M153.207 45.5149C152.665 45.5149 152.165 45.3873 151.708 45.132C151.255 44.8712 150.895 44.511 150.627 44.0517C150.365 43.5866 150.234 43.0648 150.234 42.4864C150.234 41.9079 150.365 41.389 150.627 40.9296C150.895 40.4702 151.255 40.1129 151.708 39.8577C152.165 39.5968 152.665 39.4664 153.207 39.4664C153.754 39.4664 154.253 39.5968 154.706 39.8577C155.163 40.1129 155.523 40.4702 155.786 40.9296C156.048 41.389 156.179 41.9079 156.179 42.4864C156.179 43.0648 156.048 43.5866 155.786 44.0517C155.523 44.511 155.163 44.8712 154.706 45.132C154.253 45.3873 153.754 45.5149 153.207 45.5149ZM153.207 44.6727C153.592 44.6727 153.935 44.5848 154.237 44.4089C154.538 44.2275 154.773 43.9723 154.94 43.6433C155.113 43.3087 155.2 42.9231 155.2 42.4864C155.2 42.0497 155.113 41.6668 154.94 41.3379C154.773 41.009 154.538 40.7566 154.237 40.5808C153.935 40.405 153.592 40.3171 153.207 40.3171C152.821 40.3171 152.478 40.405 152.177 40.5808C151.875 40.7566 151.638 41.009 151.465 41.3379C151.297 41.6668 151.214 42.0497 151.214 42.4864C151.214 42.9231 151.297 43.3087 151.465 43.6433C151.638 43.9723 151.875 44.2275 152.177 44.4089C152.478 44.5848 152.821 44.6727 153.207 44.6727Z" fill="#2279FE"/>
<path d="M159.246 44.6727H161.214V45.4553H158.291V39.5429H159.246V44.6727Z" fill="#2279FE"/>
<path d="M165.839 45.5149C165.297 45.5149 164.798 45.3873 164.34 45.132C163.888 44.8712 163.528 44.511 163.26 44.0517C162.997 43.5866 162.866 43.0648 162.866 42.4864C162.866 41.9079 162.997 41.389 163.26 40.9296C163.528 40.4702 163.888 40.1129 164.34 39.8577C164.798 39.5968 165.297 39.4664 165.839 39.4664C166.386 39.4664 166.886 39.5968 167.338 39.8577C167.795 40.1129 168.156 40.4702 168.418 40.9296C168.68 41.389 168.812 41.9079 168.812 42.4864C168.812 43.0648 168.68 43.5866 168.418 44.0517C168.156 44.511 167.795 44.8712 167.338 45.132C166.886 45.3873 166.386 45.5149 165.839 45.5149ZM165.839 44.6727C166.224 44.6727 166.567 44.5848 166.869 44.4089C167.17 44.2275 167.405 43.9723 167.572 43.6433C167.745 43.3087 167.832 42.9231 167.832 42.4864C167.832 42.0497 167.745 41.6668 167.572 41.3379C167.405 41.009 167.17 40.7566 166.869 40.5808C166.567 40.405 166.224 40.3171 165.839 40.3171C165.454 40.3171 165.11 40.405 164.809 40.5808C164.507 40.7566 164.27 41.009 164.097 41.3379C163.93 41.6668 163.846 42.0497 163.846 42.4864C163.846 42.9231 163.93 43.3087 164.097 43.6433C164.27 43.9723 164.507 44.2275 164.809 44.4089C165.11 44.5848 165.454 44.6727 165.839 44.6727ZM166.701 38.2754L164.851 39.2026V38.4881L166.701 37.4502V38.2754Z" fill="#2279FE"/>
<path d="M175.135 41.2443C174.985 40.9494 174.775 40.7282 174.507 40.5808C174.239 40.4277 173.929 40.3511 173.578 40.3511C173.193 40.3511 172.849 40.439 172.548 40.6148C172.246 40.7906 172.009 41.0402 171.836 41.3634C171.669 41.6867 171.585 42.061 171.585 42.4864C171.585 42.9117 171.669 43.2889 171.836 43.6178C172.009 43.9411 172.246 44.1906 172.548 44.3664C172.849 44.5422 173.193 44.6301 173.578 44.6301C174.097 44.6301 174.518 44.4827 174.842 44.1878C175.166 43.8929 175.364 43.493 175.437 42.9883H173.251V42.2141H176.458V42.9713C176.397 43.4306 176.235 43.8532 175.973 44.2388C175.716 44.6245 175.378 44.9336 174.959 45.1661C174.546 45.3929 174.086 45.5064 173.578 45.5064C173.031 45.5064 172.531 45.3788 172.079 45.1235C171.627 44.8627 171.267 44.5025 170.999 44.0431C170.736 43.5838 170.605 43.0648 170.605 42.4864C170.605 41.9079 170.736 41.389 170.999 40.9296C171.267 40.4702 171.627 40.1129 172.079 39.8577C172.537 39.5968 173.036 39.4664 173.578 39.4664C174.197 39.4664 174.747 39.6223 175.227 39.9342C175.713 40.2405 176.065 40.6772 176.283 41.2443H175.135Z" fill="#2279FE"/>
<path d="M179.527 39.5429V45.4553H178.572V39.5429H179.527Z" fill="#2279FE"/>
<path d="M181.634 42.4864C181.634 41.9079 181.766 41.389 182.028 40.9296C182.296 40.4702 182.656 40.1129 183.108 39.8577C183.566 39.5968 184.066 39.4664 184.607 39.4664C185.227 39.4664 185.777 39.6223 186.257 39.9342C186.742 40.2405 187.094 40.6772 187.312 41.2443H186.165C186.014 40.9324 185.805 40.6999 185.537 40.5468C185.269 40.3936 184.959 40.3171 184.607 40.3171C184.222 40.3171 183.879 40.405 183.577 40.5808C183.276 40.7566 183.038 41.009 182.865 41.3379C182.698 41.6668 182.614 42.0497 182.614 42.4864C182.614 42.9231 182.698 43.3059 182.865 43.6348C183.038 43.9637 183.276 44.219 183.577 44.4004C183.879 44.5763 184.222 44.6642 184.607 44.6642C184.959 44.6642 185.269 44.5876 185.537 44.4345C185.805 44.2813 186.014 44.0488 186.165 43.7369H187.312C187.094 44.304 186.742 44.7407 186.257 45.047C185.777 45.3532 185.227 45.5064 184.607 45.5064C184.06 45.5064 183.56 45.3788 183.108 45.1235C182.656 44.8627 182.296 44.5025 182.028 44.0431C181.766 43.5838 181.634 43.0648 181.634 42.4864Z" fill="#2279FE"/>
<path d="M193.11 44.2473H190.673L190.255 45.4553H189.258L191.343 39.5344H192.449L194.534 45.4553H193.529L193.11 44.2473ZM192.842 43.4562L191.896 40.7084L190.941 43.4562H192.842Z" fill="#2279FE"/>
<path d="M198.53 45.5149C198.14 45.5149 197.788 45.4468 197.475 45.3107C197.163 45.1689 196.917 44.9704 196.738 44.7152C196.56 44.46 196.47 44.1622 196.47 43.822H197.492C197.514 44.0772 197.612 44.287 197.785 44.4515C197.964 44.616 198.212 44.6982 198.53 44.6982C198.86 44.6982 199.117 44.6188 199.301 44.46C199.485 44.2955 199.577 44.0857 199.577 43.8305C199.577 43.632 199.519 43.4703 199.401 43.3456C199.29 43.2208 199.147 43.1244 198.974 43.0563C198.807 42.9883 198.572 42.9145 198.271 42.8351C197.891 42.7331 197.581 42.631 197.341 42.5289C197.107 42.4211 196.906 42.2567 196.738 42.0355C196.571 41.8143 196.487 41.5194 196.487 41.1508C196.487 40.8105 196.571 40.5127 196.738 40.2575C196.906 40.0023 197.14 39.8066 197.442 39.6705C197.743 39.5344 198.092 39.4664 198.489 39.4664C199.052 39.4664 199.513 39.611 199.87 39.9002C200.233 40.1838 200.434 40.5751 200.473 41.0742H199.418C199.401 40.8587 199.301 40.6744 199.117 40.5212C198.932 40.3681 198.69 40.2915 198.388 40.2915C198.115 40.2915 197.891 40.3624 197.718 40.5042C197.545 40.646 197.459 40.8502 197.459 41.1167C197.459 41.2982 197.512 41.4485 197.618 41.5676C197.729 41.681 197.869 41.7718 198.036 41.8398C198.204 41.9079 198.433 41.9816 198.723 42.061C199.108 42.1688 199.421 42.2765 199.661 42.3843C199.907 42.492 200.113 42.6593 200.281 42.8862C200.454 43.1074 200.54 43.4051 200.54 43.7794C200.54 44.08 200.459 44.3636 200.297 44.6301C200.141 44.8967 199.909 45.1122 199.602 45.2767C199.301 45.4355 198.944 45.5149 198.53 45.5149Z" fill="#2279FE"/>
<path d="M0.540039 1.77065C0.540039 1.31685 0.902159 0.948975 1.34886 0.948975H44.0629C44.5096 0.948975 44.8717 1.31685 44.8717 1.77065V9.76196C44.8717 10.2158 44.5096 10.5836 44.0629 10.5836H1.34886C0.902159 10.5836 0.540039 10.2158 0.540039 9.76196V1.77065Z" fill="#2178FC"/>
<path d="M0.540039 1.77065C0.540039 1.31685 0.902159 0.948975 1.34886 0.948975H44.0629C44.5096 0.948975 44.8717 1.31685 44.8717 1.77065V9.76196C44.8717 10.2158 44.5096 10.5836 44.0629 10.5836H1.34886C0.902159 10.5836 0.540039 10.2158 0.540039 9.76196V1.77065Z" fill="#2178FC"/>
<path d="M0.540039 1.77065C0.540039 1.31685 0.902159 0.948975 1.34886 0.948975H44.0629C44.5096 0.948975 44.8717 1.31685 44.8717 1.77065V9.76196C44.8717 10.2158 44.5096 10.5836 44.0629 10.5836H1.34886C0.902159 10.5836 0.540039 10.2158 0.540039 9.76196V1.77065Z" fill="#2178FC"/>
<path d="M0.540039 1.77065C0.540039 1.31685 0.902159 0.948975 1.34886 0.948975H44.0629C44.5096 0.948975 44.8717 1.31685 44.8717 1.77065V9.76196C44.8717 10.2158 44.5096 10.5836 44.0629 10.5836H1.34886C0.902159 10.5836 0.540039 10.2158 0.540039 9.76196V1.77065Z" fill="#2178FC"/>
<path d="M6.93631 15.5504C6.93631 15.0966 7.29843 14.7287 7.74513 14.7287H44.063C44.5097 14.7287 44.8718 15.0966 44.8718 15.5504V23.5417C44.8718 23.9955 44.5097 24.3633 44.063 24.3633H7.74513C7.29843 24.3633 6.93631 23.9955 6.93631 23.5417V15.5504Z" fill="#2178FC"/>
<path d="M6.93631 15.5504C6.93631 15.0966 7.29843 14.7287 7.74513 14.7287H44.063C44.5097 14.7287 44.8718 15.0966 44.8718 15.5504V23.5417C44.8718 23.9955 44.5097 24.3633 44.063 24.3633H7.74513C7.29843 24.3633 6.93631 23.9955 6.93631 23.5417V15.5504Z" fill="#2178FC"/>
<path d="M6.93631 15.5504C6.93631 15.0966 7.29843 14.7287 7.74513 14.7287H44.063C44.5097 14.7287 44.8718 15.0966 44.8718 15.5504V23.5417C44.8718 23.9955 44.5097 24.3633 44.063 24.3633H7.74513C7.29843 24.3633 6.93631 23.9955 6.93631 23.5417V15.5504Z" fill="#2178FC"/>
<path d="M6.93631 15.5504C6.93631 15.0966 7.29843 14.7287 7.74513 14.7287H44.063C44.5097 14.7287 44.8718 15.0966 44.8718 15.5504V23.5417C44.8718 23.9955 44.5097 24.3633 44.063 24.3633H7.74513C7.29843 24.3633 6.93631 23.9955 6.93631 23.5417V15.5504Z" fill="#2178FC"/>
<path d="M16.7512 29.3304C16.7512 28.8766 17.1134 28.5087 17.5601 28.5087H44.0632C44.5099 28.5087 44.8721 28.8766 44.8721 29.3304V37.3217C44.8721 37.7755 44.5099 38.1434 44.0632 38.1434H17.56C17.1134 38.1434 16.7512 37.7755 16.7512 37.3217V29.3304Z" fill="#2178FC"/>
<path d="M16.7512 29.3304C16.7512 28.8766 17.1134 28.5087 17.5601 28.5087H44.0632C44.5099 28.5087 44.8721 28.8766 44.8721 29.3304V37.3217C44.8721 37.7755 44.5099 38.1434 44.0632 38.1434H17.56C17.1134 38.1434 16.7512 37.7755 16.7512 37.3217V29.3304Z" fill="#2178FC"/>
<path d="M16.7512 29.3304C16.7512 28.8766 17.1134 28.5087 17.5601 28.5087H44.0632C44.5099 28.5087 44.8721 28.8766 44.8721 29.3304V37.3217C44.8721 37.7755 44.5099 38.1434 44.0632 38.1434H17.56C17.1134 38.1434 16.7512 37.7755 16.7512 37.3217V29.3304Z" fill="#2178FC"/>
<path d="M16.7512 29.3304C16.7512 28.8766 17.1134 28.5087 17.5601 28.5087H44.0632C44.5099 28.5087 44.8721 28.8766 44.8721 29.3304V37.3217C44.8721 37.7755 44.5099 38.1434 44.0632 38.1434H17.56C17.1134 38.1434 16.7512 37.7755 16.7512 37.3217V29.3304Z" fill="#2178FC"/>
<path d="M22.7065 43.1101C22.7065 42.6563 23.0686 42.2884 23.5153 42.2884H44.0635C44.5102 42.2884 44.8723 42.6563 44.8723 43.1101V51.1014C44.8723 51.5552 44.5102 51.9231 44.0635 51.9231H23.5153C23.0686 51.9231 22.7065 51.5552 22.7065 51.1014V43.1101Z" fill="#2178FC"/>
<path d="M22.7065 43.1101C22.7065 42.6563 23.0686 42.2884 23.5153 42.2884H44.0635C44.5102 42.2884 44.8723 42.6563 44.8723 43.1101V51.1014C44.8723 51.5552 44.5102 51.9231 44.0635 51.9231H23.5153C23.0686 51.9231 22.7065 51.5552 22.7065 51.1014V43.1101Z" fill="#2178FC"/>
<path d="M22.7065 43.1101C22.7065 42.6563 23.0686 42.2884 23.5153 42.2884H44.0635C44.5102 42.2884 44.8723 42.6563 44.8723 43.1101V51.1014C44.8723 51.5552 44.5102 51.9231 44.0635 51.9231H23.5153C23.0686 51.9231 22.7065 51.5552 22.7065 51.1014V43.1101Z" fill="#2178FC"/>
<path d="M22.7065 43.1101C22.7065 42.6563 23.0686 42.2884 23.5153 42.2884H44.0635C44.5102 42.2884 44.8723 42.6563 44.8723 43.1101V51.1014C44.8723 51.5552 44.5102 51.9231 44.0635 51.9231H23.5153C23.0686 51.9231 22.7065 51.5552 22.7065 51.1014V43.1101Z" fill="#2178FC"/>
</svg>
