<svg width="50" height="50" viewBox="0 0 50 50" fill="none" xmlns="http://www.w3.org/2000/svg">
<g clip-path="url(#clip0)">
<path d="M25 50C38.8071 50 50 38.8071 50 25C50 11.1929 38.8071 0 25 0C11.1929 0 0 11.1929 0 25C0 38.8071 11.1929 50 25 50Z" fill="#2178FC"/>
<path d="M49.9967 25.3852L41.9721 17.3606L41.0884 18.0134L33.1694 9.87329L8.40234 28.5674L20.0407 40.2058L16.982 42.7765L24.193 49.9874C24.4608 49.9959 24.7297 50.0001 24.9996 50.0001C38.6782 50.0002 49.7909 39.0148 49.9967 25.3852Z" fill="#2840F2"/>
<path d="M35.8812 30.9104C40.3795 30.9104 44.026 27.2638 44.026 22.7656C44.026 18.2673 40.3794 14.6208 35.8812 14.6208C35.8809 14.6208 35.8805 14.6208 35.8801 14.6208C34.5478 9.86528 30.1813 6.37769 25.0003 6.37769C19.8192 6.37769 15.4528 9.86528 14.1205 14.6208C14.1201 14.6208 14.1197 14.6208 14.1193 14.6208C9.62109 14.6208 5.97461 18.2673 5.97461 22.7656C5.97461 27.2638 9.62119 30.9104 14.1193 30.9104H35.8812Z" fill="white"/>
<path d="M35.8806 14.6208C35.8802 14.6208 35.8798 14.6208 35.8794 14.6208C34.5471 9.86528 30.1807 6.37769 24.9996 6.37769C24.988 6.37769 24.9765 6.37837 24.9648 6.37837V30.9104H35.8806C40.3788 30.9104 44.0253 27.2638 44.0253 22.7656C44.0253 18.2673 40.3787 14.6208 35.8806 14.6208Z" fill="#E9EDF5"/>
<path d="M31.4283 32.659H28.4986V25.0232C28.4986 23.0942 26.9293 21.5249 25.0003 21.5249C23.0713 21.5249 21.502 23.0942 21.502 25.0232V32.659H18.5723V25.0232C18.5723 21.4788 21.4559 18.5952 25.0003 18.5952C28.5447 18.5952 31.4283 21.4788 31.4283 25.0232V32.659Z" fill="#FFCE00"/>
<path d="M24.9996 18.5952C24.988 18.5952 24.9765 18.596 24.9648 18.5961V21.5258C24.9765 21.5257 24.988 21.5249 24.9996 21.5249C26.9286 21.5249 28.4979 23.0942 28.4979 25.0232V32.659H31.4276V25.0232C31.4276 21.4788 28.544 18.5952 24.9996 18.5952V18.5952Z" fill="#FDBA12"/>
<path d="M16.9824 28.3208H33.0175V42.7765H16.9824V28.3208Z" fill="#636978"/>
<path d="M24.9648 28.3208H33.0171V42.7765H24.9648V28.3208Z" fill="#414952"/>
<path d="M23.0439 33.1636H26.9572V39.1758H23.0439V33.1636Z" fill="#414952"/>
<path d="M24.9648 33.1636H26.9562V39.1758H24.9648V33.1636Z" fill="#23272B"/>
</g>
<defs>
<clipPath id="clip0">
<rect width="50" height="50" fill="white"/>
</clipPath>
</defs>
</svg>
