<svg width="50" height="50" viewBox="0 0 50 50" fill="none" xmlns="http://www.w3.org/2000/svg">
<path d="M25 50C38.8071 50 50 38.8071 50 25C50 11.1929 38.8071 0 25 0C11.1929 0 0 11.1929 0 25C0 38.8071 11.1929 50 25 50Z" fill="#2178FC"/>
<path d="M49.9949 25.5169L38.4021 13.9241L37.7897 14.4208L31.6782 8.2395L11.8982 22.4633L18.9532 29.3947L10.1025 37.2882L22.7109 49.8966C23.4649 49.9651 24.2284 50.0001 25.0002 50.0001C38.6346 50.0001 49.7197 39.0854 49.9949 25.5169Z" fill="#2840F2"/>
<path d="M36.2386 35.6602L29.4111 29.5286V21.7168H32.3408V28.222L38.1961 33.4805L36.2386 35.6602Z" fill="#19CFFC"/>
<path d="M23.5352 20.8352H26.4648V37.7521H23.5352V20.8352Z" fill="#96E8FF"/>
<path d="M24.9658 20.8352H26.4654V37.7521H24.9658V20.8352Z" fill="#19CFFC"/>
<path d="M28.7596 41.284C29.097 39.2029 27.6834 37.2423 25.6023 36.905C23.5211 36.5676 21.5605 37.9812 21.2232 40.0623C20.8858 42.1435 22.2994 44.1041 24.3805 44.4414C26.4617 44.7788 28.4223 43.3652 28.7596 41.284Z" fill="#FFCE00"/>
<path d="M25.0006 36.8608C24.989 36.8608 24.9774 36.8616 24.9658 36.8617V44.4957C24.9774 44.4958 24.989 44.4966 25.0006 44.4966C27.1092 44.4966 28.8185 42.7873 28.8185 40.6787C28.8185 38.5701 27.1092 36.8608 25.0006 36.8608Z" fill="#FDBA12"/>
<path d="M40.9317 35.4658C41.4167 33.4141 40.1467 31.3578 38.095 30.8729C36.0434 30.3879 33.9871 31.6579 33.5021 33.7095C33.0172 35.7612 34.2872 37.8175 36.3388 38.3024C38.3904 38.7874 40.4468 37.5174 40.9317 35.4658Z" fill="#FDBA12"/>
<path d="M13.7612 35.6602L11.8037 33.4805L17.659 28.222V21.7168H20.5887V29.5286L13.7612 35.6602Z" fill="#96E8FF"/>
<path d="M13.6663 38.2734C15.7179 37.7884 16.988 35.7321 16.503 33.6805C16.018 31.6289 13.9617 30.3588 11.9101 30.8438C9.85848 31.3288 8.58846 33.3851 9.07342 35.4367C9.55839 37.4883 11.6147 38.7583 13.6663 38.2734Z" fill="#FFCE00"/>
<path d="M33.5201 24.4046C37.0424 24.4046 39.8977 21.5492 39.8977 18.0271C39.8977 14.5049 37.0423 11.6495 33.5201 11.6495C33.5198 11.6495 33.5195 11.6495 33.5192 11.6495C32.476 7.92568 29.0569 5.19482 25.0001 5.19482C20.9433 5.19482 17.5242 7.92568 16.481 11.6495C16.4807 11.6495 16.4804 11.6495 16.4801 11.6495C12.9578 11.6495 10.1025 14.5049 10.1025 18.0271C10.1025 21.5492 12.9579 24.4046 16.4801 24.4046H33.5201Z" fill="white"/>
<path d="M33.5206 11.6494C33.5203 11.6494 33.52 11.6494 33.5196 11.6494C32.4765 7.92568 29.0574 5.19482 25.0006 5.19482C24.989 5.19482 24.9774 5.19551 24.9658 5.19551V24.4046H33.5206C37.0428 24.4046 39.8982 21.5492 39.8982 18.0271C39.8982 14.5048 37.0428 11.6494 33.5206 11.6494V11.6494Z" fill="#E9EDF5"/>
</svg>
