<svg width="50" height="50" viewBox="0 0 50 50" fill="none" xmlns="http://www.w3.org/2000/svg">
<path d="M25 50C38.8071 50 50 38.8071 50 25C50 11.1929 38.8071 0 25 0C11.1929 0 0 11.1929 0 25C0 38.8071 11.1929 50 25 50Z" fill="#2178FC"/>
<path d="M30.0441 11.5583L35.4959 17.3026L38.3343 24.0959L32.1096 17.8712L31.7276 18.6906L25.8515 12.646L6.80273 26.3183L29.991 49.5021C41.4065 47.1891 49.9997 37.0983 49.9997 25.0004C49.9997 24.7887 49.997 24.5776 49.9918 24.3672L37.4393 11.8148L30.0441 11.5583Z" fill="#2840F2"/>
<path d="M27.5637 28.1344C30.9539 28.1344 33.7023 25.3861 33.7023 21.9958C33.7023 18.6054 30.954 15.8571 27.5637 15.8571C27.5634 15.8571 27.5631 15.8571 27.5628 15.8571C26.5587 12.2728 23.2678 9.64429 19.3629 9.64429C15.458 9.64429 12.1671 12.2729 11.163 15.8571C11.1627 15.8571 11.1624 15.8571 11.1621 15.8571C7.77188 15.8571 5.02344 18.6054 5.02344 21.9958C5.02344 25.3861 7.77178 28.1344 11.1621 28.1344H27.5637Z" fill="white"/>
<path d="M27.5637 15.8571C27.5634 15.8571 27.5631 15.8571 27.5628 15.8571C26.5587 12.2728 23.2678 9.64429 19.3629 9.64429C19.3617 9.64429 19.3605 9.64429 19.3594 9.64429V28.1343H27.5637C30.9539 28.1343 33.7023 25.386 33.7023 21.9956C33.7022 18.6054 30.9539 15.8571 27.5637 15.8571V15.8571Z" fill="#E9EDF5"/>
<path d="M42.0471 17.2997L40.2357 19.112V18.8205C40.2357 13.2006 35.6638 8.62866 30.0439 8.62866V11.5583C34.0482 11.5583 37.3061 14.8162 37.3061 18.8205V19.1125L35.4957 17.3025L33.4243 19.3745L38.772 24.7209L44.1192 19.3708L42.0471 17.2997Z" fill="#19CFFC"/>
<path d="M14.2742 24.9307V24.7855L16.0864 26.5972L18.1578 24.5253L12.8102 19.179L7.46289 24.5291L9.53506 26.6001L11.3446 24.7896V24.9308C11.3446 30.5506 15.9166 35.1226 21.5364 35.1226V32.1929C17.5319 32.1928 14.2742 28.9351 14.2742 24.9307V24.9307Z" fill="#96E8FF"/>
<path d="M23.4365 26.7136H40.7833V38.7352H23.4365V26.7136Z" fill="#FFCE00"/>
<path d="M32.1104 26.7136H40.7838V38.7352H32.1104V26.7136Z" fill="#FDBA12"/>
<path d="M40.7833 26.7136L32.11 34.728L23.4365 26.7136H40.7833Z" fill="#FDBA12"/>
<path d="M40.7837 26.7136L32.1104 34.728V26.7136H40.7837Z" fill="#FFA300"/>
</svg>
