<svg width="40" height="40" viewBox="0 0 40 40" fill="none" xmlns="http://www.w3.org/2000/svg">
<g clip-path="url(#clip0)">
<path d="M20 40C31.0457 40 40 31.0457 40 20C40 8.9543 31.0457 0 20 0C8.9543 0 0 8.9543 0 20C0 31.0457 8.9543 40 20 40Z" fill="#2178FC"/>
<path d="M20.0003 16.0867L31.0055 17.0163L40.0003 20.0001C40.0003 31.0458 31.046 40.0001 20.0003 40.0001C18.6684 40.0001 17.3673 39.8687 16.1082 39.6203L12.6475 29.487L20.0003 16.0867Z" fill="#2840F2"/>
<path d="M30.8635 18.6674C31.2017 18.3173 31.3138 17.832 31.1634 17.3691C31.013 16.9062 30.6371 16.5795 30.1578 16.4952L24.4294 15.4867C24.1891 15.4444 23.9855 15.2965 23.871 15.081L21.1417 9.94463C20.9133 9.51483 20.4864 9.2583 19.9997 9.2583C19.5131 9.2583 19.0861 9.51483 18.8578 9.94468L16.1285 15.081C16.0139 15.2966 15.8103 15.4444 15.57 15.4868L9.84169 16.4953C9.36238 16.5796 8.98645 16.9063 8.83603 17.3691C8.6856 17.832 8.79775 18.3173 9.1359 18.6674L13.1775 22.8503C13.347 23.0258 13.4248 23.2651 13.3908 23.5068L12.5798 29.2664C12.5119 29.7484 12.7065 30.2069 13.1002 30.493C13.3284 30.6588 13.591 30.743 13.8567 30.743C14.0493 30.743 14.2436 30.6987 14.4276 30.6089L19.6546 28.0577C19.874 27.9507 20.1255 27.9507 20.3449 28.0577L25.572 30.6089C26.0094 30.8224 26.5055 30.7791 26.8993 30.493C27.293 30.2069 27.4876 29.7483 27.4197 29.2664L26.6087 23.5068C26.5747 23.2652 26.6524 23.0258 26.822 22.8503L30.8635 18.6674Z" fill="#FFDD54"/>
<path d="M26.8224 22.8492C26.6528 23.0248 26.5748 23.2641 26.6092 23.5057L27.4199 29.2654C27.4881 29.7474 27.2934 30.2059 26.8998 30.4916C26.5056 30.7778 26.0094 30.8215 25.5722 30.6077L20.3451 28.0566C20.2355 28.0032 20.1178 27.9765 20 27.9765V9.25684C20.4869 9.25684 20.9138 9.51364 21.1417 9.94327L23.8711 15.0798C23.9856 15.2952 24.1895 15.4435 24.4299 15.4855L30.158 16.4941C30.6373 16.5786 31.0135 16.9052 31.164 17.3681C31.3139 17.831 31.2021 18.3162 30.8635 18.6663L26.8224 22.8492Z" fill="#FFCB00"/>
</g>
<defs>
<clipPath id="clip0">
<rect width="40" height="40" fill="white"/>
</clipPath>
</defs>
</svg>
