<svg width="50" height="50" viewBox="0 0 50 50" fill="none" xmlns="http://www.w3.org/2000/svg">
<path d="M25 50C38.8071 50 50 38.8071 50 25C50 11.1929 38.8071 0 25 0C11.1929 0 0 11.1929 0 25C0 38.8071 11.1929 50 25 50Z" fill="#2178FC"/>
<path d="M28.1062 49.8092C39.8292 48.3568 49.036 38.7883 49.9296 26.9008L42.1145 19.0858L41.0908 19.7835L33.747 12.0867L8.24609 29.9707L28.1062 49.8092Z" fill="#2840F2"/>
<path d="M35.8812 32.4731C40.3795 32.4731 44.026 28.8265 44.026 24.3283C44.026 19.83 40.3794 16.1834 35.8812 16.1834C35.8809 16.1834 35.8805 16.1834 35.8801 16.1834C34.5478 11.4279 30.1746 7.94019 24.9937 7.94019C19.8127 7.94019 15.4529 11.4278 14.1206 16.1834C14.1202 16.1834 14.1198 16.1834 14.1194 16.1834C9.62119 16.1834 5.97461 19.83 5.97461 24.3283C5.97461 28.8265 9.62119 32.4731 14.1194 32.4731H35.8812Z" fill="white"/>
<path d="M24.9932 32.4731H35.8808C40.379 32.4731 44.0255 28.8265 44.0255 24.3283C44.0255 19.83 40.3789 16.1835 35.8808 16.1835C35.8804 16.1835 35.88 16.1835 35.8796 16.1835C34.5473 11.4278 30.1741 7.94019 24.9932 7.94019V32.4731Z" fill="#E9EDF5"/>
<path d="M34.3223 25.5691L24.9938 14.4917L15.6787 25.5691H20.4825V37.5263H29.5185V25.5691H34.3223Z" fill="#96E8FF"/>
<path d="M24.9932 37.5262H29.5179V25.5691H34.3217L24.9932 14.4917V37.5262Z" fill="#19CFFC"/>
</svg>
