<svg width="50" height="50" viewBox="0 0 50 50" fill="none" xmlns="http://www.w3.org/2000/svg">
<path d="M25 50C38.8071 50 50 38.8071 50 25C50 11.1929 38.8071 0 25 0C11.1929 0 0 11.1929 0 25C0 38.8071 11.1929 50 25 50Z" fill="#2178FC"/>
<path d="M25.7337 49.9896C38.3554 49.6258 48.6326 39.9069 49.8741 27.5243L42.1135 19.7636L41.3039 20.6222L33.7386 12.7903L7.51953 31.7754L25.7337 49.9896Z" fill="#2840F2"/>
<path d="M36.3225 34.4272C41.0034 34.4272 44.798 30.6325 44.798 25.9516C44.798 21.2706 41.0034 17.476 36.3225 17.476C36.3221 17.476 36.3217 17.476 36.3212 17.476C34.9349 12.5272 30.3911 8.89795 24.9996 8.89795C19.6081 8.89795 15.0644 12.5272 13.6779 17.476C13.6775 17.476 13.6771 17.476 13.6768 17.476C8.9958 17.476 5.20117 21.2706 5.20117 25.9516C5.20117 30.6325 8.9958 34.4272 13.6768 34.4272H36.3225Z" fill="white"/>
<path d="M36.323 17.4763C36.3227 17.4763 36.3223 17.4763 36.3218 17.4763C34.9384 12.5383 30.4112 8.91475 25.0352 8.89893V34.4274H36.3229C41.0039 34.4274 44.7985 30.6328 44.7985 25.9519C44.7985 21.2709 41.004 17.4763 36.323 17.4763V17.4763Z" fill="#E9EDF5"/>
<path d="M29.915 27.2923C27.2049 24.5824 22.7953 24.5823 20.0853 27.2923L18.0137 25.2208C21.866 21.3685 28.1343 21.3684 31.9865 25.2208L29.915 27.2923Z" fill="#2FDDD0"/>
<path d="M31.9865 25.2214C30.0692 23.3041 27.5536 22.3414 25.0352 22.3325V25.2612C26.8033 25.27 28.5688 25.9468 29.9149 27.2929L31.9865 25.2214Z" fill="#11BFAE"/>
<path d="M15.6292 22.8367L13.5576 20.7651C19.8669 14.4558 30.1327 14.4559 36.4418 20.7651L34.3702 22.8367C29.2034 17.6698 20.7962 17.6697 15.6292 22.8367V22.8367Z" fill="#2FDDD0"/>
<path d="M36.4422 20.766C33.2965 17.6203 29.1672 16.0433 25.0352 16.0344V18.9627C28.417 18.9716 31.7961 20.2629 34.3706 22.8375L36.4422 20.766Z" fill="#11BFAE"/>
<path d="M25.0004 32.438C26.3182 32.438 27.3865 31.3697 27.3865 30.0519C27.3865 28.7341 26.3182 27.6658 25.0004 27.6658C23.6826 27.6658 22.6143 28.7341 22.6143 30.0519C22.6143 31.3697 23.6826 32.438 25.0004 32.438Z" fill="#2FDDD0"/>
<path d="M27.3862 30.052C27.3862 28.7459 26.3367 27.6856 25.0352 27.6667V32.4374C26.3368 32.4184 27.3862 31.3581 27.3862 30.052Z" fill="#11BFAE"/>
</svg>
